<?xml version="1.0" encoding="UTF-8" standalone="no"?>
<!-- Created with Inkscape (http://www.inkscape.org/) -->

<svg
   xmlns:dc="http://purl.org/dc/elements/1.1/"
   xmlns:cc="http://creativecommons.org/ns#"
   xmlns:rdf="http://www.w3.org/1999/02/22-rdf-syntax-ns#"
   xmlns:svg="http://www.w3.org/2000/svg"
   xmlns="http://www.w3.org/2000/svg"
   xmlns:sodipodi="http://sodipodi.sourceforge.net/DTD/sodipodi-0.dtd"
   xmlns:inkscape="http://www.inkscape.org/namespaces/inkscape"
   width="64"
   height="63.999996"
   id="svg3918"
   version="1.1"
   inkscape:version="0.48.4 r"
   sodipodi:docname="backpacktf2.svg"
   inkscape:export-filename="C:\Users\webster\Downloads\tf2reputation\backpacktf2.png"
   inkscape:export-xdpi="57.599998"
   inkscape:export-ydpi="57.599998">
  <defs
     id="defs3920" />
  <sodipodi:namedview
     id="base"
     pagecolor="#ffffff"
     bordercolor="#666666"
     borderopacity="1.0"
     inkscape:pageopacity="0.0"
     inkscape:pageshadow="2"
     inkscape:zoom="4"
     inkscape:cx="47.625"
     inkscape:cy="40.249992"
     inkscape:document-units="px"
     inkscape:current-layer="layer1"
     showgrid="false"
     fit-margin-top="0"
     fit-margin-left="0"
     fit-margin-right="0"
     fit-margin-bottom="0"
     borderlayer="false"
     showborder="true"
     inkscape:showpageshadow="true"
     inkscape:window-width="1280"
     inkscape:window-height="961"
     inkscape:window-x="1272"
     inkscape:window-y="-8"
     inkscape:window-maximized="1"
     inkscape:snap-object-midpoints="true"
     inkscape:snap-center="true"
     inkscape:snap-page="true" />
  <metadata
     id="metadata3923">
    <rdf:RDF>
      <cc:Work
         rdf:about="">
        <dc:format>image/svg+xml</dc:format>
        <dc:type
           rdf:resource="http://purl.org/dc/dcmitype/StillImage" />
        <dc:title></dc:title>
      </cc:Work>
    </rdf:RDF>
  </metadata>
  <g
     inkscape:label="Layer 1"
     inkscape:groupmode="layer"
     id="layer1"
     transform="translate(-657.71429,-813.50507)">
    <rect
       style="fill:#ff0000;fill-opacity:1;stroke:none;opacity:0"
       id="rect4492"
       width="63.999996"
       height="63.999996"
       x="657.71429"
       y="813.50507" />
    <path
       style="fill:#4b4b4b;fill-opacity:1;stroke:none"
       d="m 657.71429,820.98507 0,49.04 41.6,0 22.4,-29 -19.52,-20.04 -44.48,0 z m 37.34,3.84 c 2.72247,-0.10358 4.9,0.52 4.9,0.52 l 0,6.66 c 0,0 -6.98,-2.44716 -6.98,5.76 l 5.5,0 0,6.46 -5.5,0 0,20.74 -8.5,0 0,-20.74 -8.78,0 0,10.76 c 0,5.41502 6.02,3.32 6.02,3.32 l 0,6.66 c 0,0 -14.58122,4.79145 -14.46,-9.34 l 0,-11.4 -3.78,0 0,-6.46 3.78,0 0,-5.06 8.44,-2.3 0,7.36 8.78,0 c 0,-10.55961 6.04255,-12.76737 10.58,-12.94 z"
       id="path3941"
       inkscape:connector-curvature="0" />
  </g>
</svg>
