<?xml version="1.0" encoding="UTF-8" standalone="no"?>
<!-- Created with Inkscape (http://www.inkscape.org/) -->

<svg
   xmlns:dc="http://purl.org/dc/elements/1.1/"
   xmlns:cc="http://creativecommons.org/ns#"
   xmlns:rdf="http://www.w3.org/1999/02/22-rdf-syntax-ns#"
   xmlns:svg="http://www.w3.org/2000/svg"
   xmlns="http://www.w3.org/2000/svg"
   xmlns:sodipodi="http://sodipodi.sourceforge.net/DTD/sodipodi-0.dtd"
   xmlns:inkscape="http://www.inkscape.org/namespaces/inkscape"
   id="svg2"
   version="1.1"
   inkscape:version="0.48.4 r"
   width="64"
   height="64"
   sodipodi:docname="tf2outpost3.svg"
   inkscape:export-filename="C:\Users\webster\Downloads\tf2reputation\tf2outpost3.png"
   inkscape:export-xdpi="57.599998"
   inkscape:export-ydpi="57.599998">
  <metadata
     id="metadata8">
    <rdf:RDF>
      <cc:Work
         rdf:about="">
        <dc:format>image/svg+xml</dc:format>
        <dc:type
           rdf:resource="http://purl.org/dc/dcmitype/StillImage" />
        <dc:title></dc:title>
      </cc:Work>
    </rdf:RDF>
  </metadata>
  <defs
     id="defs6" />
  <sodipodi:namedview
     pagecolor="#ffffff"
     bordercolor="#666666"
     borderopacity="1"
     objecttolerance="10"
     gridtolerance="10"
     guidetolerance="10"
     inkscape:pageopacity="0"
     inkscape:pageshadow="2"
     inkscape:window-width="1280"
     inkscape:window-height="961"
     id="namedview4"
     showgrid="false"
     inkscape:snap-page="true"
     inkscape:snap-center="true"
     inkscape:snap-object-midpoints="true"
     inkscape:snap-global="true"
     inkscape:zoom="4"
     inkscape:cx="23.875"
     inkscape:cy="28.5"
     inkscape:window-x="1272"
     inkscape:window-y="-8"
     inkscape:window-maximized="1"
     inkscape:current-layer="svg2"
     showguides="true"
     inkscape:guide-bbox="true"
     fit-margin-top="0"
     fit-margin-left="0"
     fit-margin-right="0"
     fit-margin-bottom="0" />
  <rect
     style="fill:#ff0000;fill-opacity:1;stroke:none;opacity:0"
     id="rect4492"
     width="64"
     height="64"
     x="0"
     y="0" />
  <path
     style="fill:#4b4b4b;fill-opacity:1;stroke:none"
     d="m 40.227665,31.999999 c 0,4.544015 -3.683651,8.227667 -8.227666,8.227667 -4.544015,0 -8.227667,-3.683652 -8.227667,-8.227667 0,-4.544015 3.683652,-8.227666 8.227667,-8.227666 4.544015,0 8.227666,3.683651 8.227666,8.227666 z"
     id="path3761"
     inkscape:connector-curvature="0" />
  <path
     style="font-size:medium;font-style:normal;font-variant:normal;font-weight:normal;font-stretch:normal;text-indent:0;text-align:start;text-decoration:none;line-height:normal;letter-spacing:normal;word-spacing:normal;text-transform:none;direction:ltr;block-progression:tb;writing-mode:lr-tb;text-anchor:start;baseline-shift:baseline;color:#000000;fill:#4b4b4b;fill-opacity:1;stroke:none;stroke-width:8.39926147;marker:none;visibility:visible;display:inline;overflow:visible;enable-background:accumulate;font-family:Sans;-inkscape-font-specification:Sans"
     d="m 32.004253,8.003385 c -13.233744,0 -24.0021109,10.757651 -24.0021109,23.991396 0,13.233745 10.7683669,24.002111 24.0021109,24.002111 13.233746,0 23.991396,-10.768366 23.991396,-24.002111 0,-13.233745 -10.75765,-23.991396 -23.991396,-23.991396 z m 0,2.882396 c 11.677277,0 21.108999,9.431722 21.108999,21.109 0,11.677277 -9.431722,21.119714 -21.108999,21.119714 -11.677276,0 -21.119714,-9.442437 -21.119714,-21.119714 0,-11.677278 9.442438,-21.109 21.119714,-21.109 z"
     id="path2987"
     inkscape:connector-curvature="0" />
  <g
     id="g3940"
     style="fill:#4b4b4b;fill-opacity:1;stroke:none"
     transform="scale(0.64,0.64)">
    <path
       style="font-size:medium;font-style:normal;font-variant:normal;font-weight:normal;font-stretch:normal;text-indent:0;text-align:start;text-decoration:none;line-height:normal;letter-spacing:normal;word-spacing:normal;text-transform:none;direction:ltr;block-progression:tb;writing-mode:lr-tb;text-anchor:start;baseline-shift:baseline;color:#000000;fill:#4b4b4b;fill-opacity:1;stroke:none;stroke-width:6.99892426;marker:none;visibility:visible;display:inline;overflow:visible;enable-background:accumulate;font-family:Sans;-inkscape-font-specification:Sans"
       d="m 58.59375,36.6875 0,2.5 c 3.181244,2.533499 5.25,6.429608 5.25,10.8125 0,2.141743 -0.498594,4.16168 -1.375,5.96875 l 3.125,3.125 0,-22.40625 z m 13.3125,10.21875 0,18.5 2.96875,2.96875 c 1.654698,-2.23204 3.021791,-4.675029 4.03125,-7.3125 l 0,-14.15625 z m -19.4375,0.625 -4.9375,4.9375 L 69.25,74.1875 c 1.829715,-1.454384 3.479621,-3.11128 4.9375,-4.9375 z m -31.375,3.71875 0,9.75 c 1.557999,4.109482 3.955631,7.790685 7,10.84375 l 0,-20.59375 z m 12.21875,6.5625 0,18.25 c 2.161193,1.383479 4.514392,2.496956 7,3.3125 l 0,-19.5 c -0.636413,-0.624441 -1.212071,-1.325421 -1.71875,-2.0625 z m 12.5,5.375 0,17.4375 c 1.366255,0.183894 2.770093,0.28125 4.1875,0.28125 0.950797,0 1.883548,-0.04136 2.8125,-0.125 l 0,-17.21875 c -0.909303,0.188143 -1.847444,0.28125 -2.8125,0.28125 -1.456804,0 -2.868863,-0.238636 -4.1875,-0.65625 z m 12.78125,1.90625 0,14.59375 c 2.47445,-0.713522 4.82271,-1.728797 7,-3 l 0,-4.59375 z"
       id="path3791-3-5-6"
       inkscape:connector-curvature="0"
       sodipodi:nodetypes="ccsccccccccccccccccccccccccccccsccscccccc" />
  </g>
</svg>
