<?xml version="1.0" encoding="UTF-8" standalone="no"?>
<svg
   xmlns:svg="http://www.w3.org/2000/svg"
   xmlns="http://www.w3.org/2000/svg"
   xmlns:sodipodi="http://sodipodi.sourceforge.net/DTD/sodipodi-0.dtd"
   xmlns:inkscape="http://www.inkscape.org/namespaces/inkscape"
   width="32"
   height="31.999998"
   id="svg2"
   version="1.1"
   inkscape:version="0.48.4 r9939"
   sodipodi:docname="tup.svg"
   inkscape:export-filename="C:\xampp\htdocs\img\tup.png"
   inkscape:export-xdpi="90"
   inkscape:export-ydpi="90">
  <defs
     id="defs12" />
  <sodipodi:namedview
     pagecolor="#ffffff"
     bordercolor="#666666"
     borderopacity="1"
     objecttolerance="10"
     gridtolerance="10"
     guidetolerance="10"
     inkscape:pageopacity="0"
     inkscape:pageshadow="2"
     inkscape:window-width="1366"
     inkscape:window-height="706"
     id="namedview10"
     showgrid="false"
     inkscape:zoom="3.698832"
     inkscape:cx="3.8553533"
     inkscape:cy="32.101629"
     inkscape:window-x="-8"
     inkscape:window-y="-8"
     inkscape:window-maximized="1"
     inkscape:current-layer="svg2"
     fit-margin-top="0"
     fit-margin-left="0"
     fit-margin-right="0"
     fit-margin-bottom="0"
     borderlayer="false"
     inkscape:showpageshadow="true" />
  <g
     id="g4"
     style="fill:#3c763d;fill-opacity:1;stroke:none"
     transform="matrix(-1,0,0,1,32,-68)">
    <path
       id="svg_1"
       d="m 31.207136,86.046548 c 0.07338,-0.524801 0.745107,-1.358792 0.791352,-2.103738 0.04625,-0.744945 -0.976646,-2.568476 -1.920182,-2.929527 -1.498084,-0.573254 -9.111947,-0.305028 -9.111947,-0.305028 -1.005533,-2.418244 2.027317,-4.391814 1.986101,-8.43167 -0.04121,-4.039857 -2.444766,-4.274724 -2.662473,-4.276573 -1.16175,-0.0099 -2.620356,6.103149 -5.486219,8.96044 -2.701082,2.693002 -3.485542,8.089371 -6.6732775,8.272584 l 0,13.136344 c 5.0767205,0.192973 15.9696225,3.04971 19.7480605,0.722116 2.185049,-1.346036 1.211014,-2.403857 1.878926,-3.741628 0.332211,-0.665388 1.277667,-1.465404 1.276311,-2.22717 -0.0014,-0.761766 -0.204199,-1.868568 -0.147481,-2.501066 0.05677,-0.633107 0.826811,-1.667947 0.824609,-2.317572 -0.0022,-0.649625 -0.596069,-1.59745 -0.50378,-2.257512 z"
       inkscape:connector-curvature="0"
       style="fill:#3c763d;fill-opacity:1;stroke:none"
       sodipodi:nodetypes="sssczssccsszsss" />
    <path
       id="svg_2"
       d="m 6.7756905,98.048973 c 0,0.707778 -0.6067631,1.281626 -1.3551381,1.281626 l -4.0654143,0 C 0.60676308,99.330599 0,98.756751 0,98.048973 L 0,85.873848 c 0,-0.707777 0.60676308,-1.281625 1.3551381,-1.281625 l 4.0654143,0 c 0.748375,0 1.3551381,0.573848 1.3551381,1.281625 l 0,12.175125 z"
       style="fill:#3c763d;fill-opacity:1;stroke:none"
       inkscape:connector-curvature="0" />
  </g>
</svg>
